<?xml version="1.0" encoding="UTF-8" standalone="no"?>
<svg
   version="1.0"
   width="808.000000pt"
   height="712.000000pt"
   viewBox="0 0 808.000000 712.000000"
   preserveAspectRatio="xMidYMid meet"
   id="svg98"
   sodipodi:docname="a178fc0a0c4618b16eb7afa210bfd9d8.svg"
   xmlns:inkscape="http://www.inkscape.org/namespaces/inkscape"
   xmlns:sodipodi="http://sodipodi.sourceforge.net/DTD/sodipodi-0.dtd"
   xmlns="http://www.w3.org/2000/svg"
   xmlns:svg="http://www.w3.org/2000/svg">
  <defs
     id="defs102" />
  <sodipodi:namedview
     id="namedview100"
     pagecolor="#ffffff"
     bordercolor="#666666"
     borderopacity="1.0"
     inkscape:pageshadow="2"
     inkscape:pageopacity="0.0"
     inkscape:pagecheckerboard="0"
     inkscape:document-units="pt" />
  <metadata
     id="metadata2">
Created by potrace 1.16, written by Peter Selinger 2001-2019
</metadata>
  <g
     transform="translate(0.000000,712.000000) scale(0.020105,-0.017880)"
     fill="#fff"
     stroke="none"
     id="g96">
    <path
       d="M19710 34824 c-30 -8 -86 -32 -125 -53 -236 -128 -3178 -1839 -3215 -1870 -61 -51 -141 -165 -178 -253 -17 -40 -41 -118 -54 -173 l-23 -100 -2 -7028 c-2 -4184 -7 -7027 -12 -7025 -5 2 -460 268 -1010 592 l-1001 589 0 3869 c0 3680 1 3869 18 3864 97 -29 211 -41 387 -40 221 0 289 13 500 93 334 129 541 320 696 644 135 284 186 573 176 1005 -6 252 -21 394 -67 623 -157 780 -587 1638 -1146 2289 -125 145 -329 350 -461 463 l-102 88 -3 422 -3 422 -33 68 c-117 237 -453 236 -569 -1 -28 -56 -28 -59 -31 -280 -3 -167 -6 -222 -15 -218 -209 91 -355 137 -532 168 -161 27 -436 22 -560 -11 -104 -28 -316 -111 -396 -157 -379 -214 -612 -635 -670 -1209 -17 -168 -6 -549 20 -727 71 -481 213 -929 447 -1403 265 -539 579 -982 983 -1386 206 -205 388 -356 588 -487 l132 -87 1 -3961 0 -3961 -61 -17 c-33 -9 -84 -28 -112 -43 -105 -53 -2096 -1217 -2202 -1288 -60 -40 -161 -117 -224 -170 -166 -143 -202 -201 -203 -318 0 -93 39 -174 121 -250 46 -42 342 -221 1296 -782 681 -400 1263 -740 1294 -755 217 -108 516 -132 744 -59 48 15 348 186 1033 585 532 310 968 564 970 564 2 0 4 -372 4 -827 l-1 -828 -1891 -1090 c-1040 -599 -1935 -1118 -1989 -1151 -134 -85 -248 -173 -350 -272 -109 -104 -133 -152 -127 -256 7 -143 82 -234 294 -357 71 -42 705 -408 1409 -814 704 -406 1281 -739 1283 -740 2 -2 -368 -1398 -371 -1402 -1 0 -218 -126 -482 -278 -264 -152 -503 -292 -531 -310 -79 -51 -94 -91 -94 -246 0 -143 12 -180 76 -240 47 -44 2378 -1391 2460 -1422 50 -18 80 -22 194 -22 125 0 139 2 190 26 85 40 2432 1398 2459 1422 32 30 61 94 61 140 0 20 2 37 5 37 3 0 1287 -740 2853 -1644 1567 -904 2877 -1660 2913 -1680 143 -78 305 -116 499 -116 133 0 229 15 317 48 81 31 6140 3532 6192 3579 26 22 60 65 75 93 28 51 29 57 23 149 -3 53 -15 130 -27 171 -46 162 -175 357 -310 467 -38 31 -223 146 -417 257 l-347 201 -34 85 c-81 203 -185 263 -327 189 l-60 -31 -290 167 c-159 92 -293 169 -298 172 -4 2 13 33 38 67 55 78 90 154 105 232 8 43 10 475 8 1559 l-3 1500 -21 40 c-12 22 -31 48 -41 57 -11 10 -111 71 -224 136 l-204 118 -5 135 c-5 123 -8 140 -37 200 -16 36 -46 81 -66 100 -42 41 -497 284 -603 322 -125 45 -217 60 -374 60 -209 1 -381 -34 -604 -124 -54 -21 -99 -39 -101 -39 -1 0 -5 62 -7 138 -5 163 -18 202 -100 288 -66 70 -157 124 -273 163 -127 42 -232 55 -399 48 -170 -6 -263 -28 -393 -92 -114 -56 -191 -125 -232 -207 l-31 -61 0 -318 0 -317 -88 -51 c-49 -28 -110 -69 -135 -92 l-47 -41 0 1602 c0 881 3 1599 8 1597 4 -2 201 -116 437 -252 237 -137 455 -257 485 -269 46 -17 79 -20 195 -21 137 0 142 1 205 31 96 46 2421 1391 2447 1416 46 43 57 84 57 223 1 149 -12 186 -83 246 -22 19 -259 160 -527 314 -326 188 -489 287 -494 301 -5 12 -99 363 -210 780 -111 418 -213 802 -226 854 -316 1187 -473 1784 -478 1819 -10 65 -62 156 -119 207 -192 172 -540 237 -852 158 -99 -25 -237 -97 -304 -160 -63 -58 -121 -155 -121 -203 0 -17 -352 -1365 -412 -1577 -2 -5 -5 2057 -8 4581 -5 4296 -7 4595 -23 4675 -78 382 -239 737 -479 1058 -137 183 -366 402 -528 504 -135 86 -4284 2476 -4358 2510 -171 81 -389 110 -532 72z m324 -144 c42 -10 114 -37 159 -58 111 -53 241 -129 230 -135 -4 -3 -253 -146 -553 -320 -300 -173 -615 -355 -700 -404 -85 -49 -213 -124 -285 -165 -137 -79 -784 -453 -1065 -616 -91 -52 -203 -117 -250 -145 -47 -27 -90 -50 -95 -50 -6 0 -71 35 -144 77 -137 81 -291 145 -396 166 -44 9 -56 15 -45 22 20 12 422 246 625 363 137 79 439 253 1365 790 96 55 314 182 485 280 170 99 332 187 360 197 70 24 210 24 309 -2z m2376 -1327 c1007 -581 1827 -1060 1823 -1064 -20 -20 -2920 -1713 -2933 -1713 -17 1 -3674 2110 -3678 2122 -2 7 2935 1711 2950 1712 4 0 831 -476 1838 -1057z m-8536 -37 c71 -54 71 -50 74 -450 3 -346 2 -359 -15 -344 -24 20 -152 108 -158 108 -6 0 -97 54 -147 88 l-38 25 0 233 c0 140 4 244 11 261 14 37 56 82 94 99 49 23 136 13 179 -20z m3121 -450 c96 -32 178 -73 345 -171 145 -84 719 -416 1025 -592 116 -67 248 -143 295 -170 105 -61 291 -168 515 -298 445 -257 897 -518 1065 -615 102 -59 318 -184 480 -277 162 -94 356 -205 430 -248 74 -43 163 -95 197 -114 322 -184 631 -532 823 -926 106 -219 167 -398 207 -615 17 -90 18 -552 21 -9610 2 -6807 0 -9546 -8 -9623 -43 -432 -314 -650 -685 -550 -103 28 -205 76 -391 183 -98 57 -282 163 -408 236 l-228 131 -93 144 c-119 183 -267 433 -340 574 -32 61 -71 134 -87 164 -16 29 -27 55 -26 57 2 2 237 -132 523 -298 598 -345 649 -372 746 -388 209 -35 377 91 418 315 8 42 11 2688 11 9398 l0 9339 -20 100 c-21 102 -73 245 -118 328 -94 173 -245 346 -372 427 -36 22 -402 236 -815 474 -412 238 -907 523 -1100 634 -192 112 -453 262 -580 335 -126 73 -462 266 -745 430 -283 163 -555 321 -605 349 -116 67 -198 92 -297 92 -160 1 -275 -90 -334 -261 -19 -54 -19 -269 -19 -9455 l0 -9400 23 -83 c83 -300 271 -574 492 -716 64 -40 764 -446 1856 -1074 l270 -156 52 -106 c82 -169 366 -722 386 -752 10 -16 16 -28 14 -28 -3 0 -86 46 -184 103 -99 57 -388 224 -644 372 -578 333 -872 503 -1065 615 -82 48 -242 140 -355 205 -394 226 -446 257 -520 311 -41 30 -108 84 -148 121 l-73 68 -34 125 c-103 370 -215 798 -215 821 0 41 -55 141 -107 193 -56 56 -176 129 -251 153 -41 13 -54 22 -60 42 -4 14 -7 4337 -7 9606 l0 9580 22 94 c53 220 170 366 341 422 87 29 269 22 377 -15z m-4150 -71 c171 -39 315 -92 495 -182 965 -481 1847 -1662 2174 -2913 135 -515 156 -1051 56 -1445 -129 -513 -423 -820 -875 -916 -100 -22 -331 -16 -465 10 -310 61 -683 239 -991 471 -301 228 -618 550 -861 875 -329 441 -593 939 -760 1435 -371 1103 -259 2080 285 2491 132 100 302 172 473 199 105 16 345 4 469 -25z m11623 -635 c46 -27 118 -76 160 -109 80 -60 232 -198 232 -209 0 -4 -12 -14 -28 -23 -15 -9 -166 -97 -337 -196 -1015 -591 -1434 -835 -1710 -996 -648 -378 -858 -499 -871 -504 -9 -3 -50 29 -107 84 -106 103 -222 197 -301 245 -31 18 -56 35 -56 38 0 3 12 12 28 21 15 8 149 87 297 174 149 87 428 250 620 363 193 113 451 264 575 337 124 72 439 257 700 410 261 153 527 309 590 346 63 38 117 69 120 69 3 0 42 -23 88 -50z m558 -911 c21 -33 23 -43 12 -50 -7 -5 -49 -30 -93 -55 -44 -26 -285 -166 -535 -312 -250 -146 -606 -353 -790 -460 -184 -107 -523 -305 -753 -439 -231 -135 -420 -243 -421 -241 -25 35 -47 81 -40 87 5 4 128 77 274 161 146 84 382 222 525 305 143 84 526 306 850 495 325 189 669 390 765 446 96 57 176 103 177 104 2 0 14 -19 29 -41z m-6538 -90 c13 -22 22 -42 20 -43 -2 -2 -79 -46 -173 -98 -842 -472 -1018 -571 -1139 -640 -76 -43 -140 -77 -141 -76 -27 42 -44 83 -38 88 4 4 159 92 343 195 489 274 891 500 1000 561 52 30 97 54 100 54 3 0 15 -19 28 -41z m1335 -691 c921 -529 1381 -796 1424 -826 166 -112 327 -339 396 -557 46 -147 48 -191 45 -997 l-3 -756 -205 117 c-113 65 -376 216 -585 336 -743 426 -853 489 -1080 620 -126 73 -401 230 -610 350 -209 120 -483 277 -610 350 -126 73 -338 194 -470 270 -132 76 -241 139 -243 140 -1 1 68 43 155 93 87 49 262 150 388 222 127 73 318 183 425 245 107 62 303 174 435 250 340 196 390 224 393 225 2 0 67 -37 145 -82z m-1793 -1203 c30 -18 226 -131 435 -250 209 -120 468 -268 575 -330 440 -253 689 -396 945 -543 291 -167 687 -394 1180 -677 171 -98 358 -206 417 -239 l108 -61 0 -748 0 -748 -22 12 c-13 7 -207 119 -433 249 -225 130 -543 314 -705 407 -162 94 -513 296 -780 450 -267 155 -806 466 -1198 692 -392 226 -730 422 -752 436 l-40 25 0 740 0 739 108 -61 c59 -33 132 -75 162 -93z m7342 92 l25 -44 -556 -323 c-306 -178 -756 -441 -1001 -584 -851 -496 -1043 -606 -1049 -602 -3 3 -15 21 -25 41 -17 31 -18 38 -5 46 15 10 1027 600 1614 941 198 115 383 223 410 239 189 111 560 328 562 329 1 0 12 -19 25 -43z m-7107 -1877 c127 -73 298 -172 380 -220 83 -47 314 -181 515 -297 201 -116 496 -286 655 -378 160 -92 364 -210 455 -263 91 -52 325 -187 520 -300 195 -113 425 -245 510 -295 85 -49 208 -119 272 -156 l117 -66 1 -367 c0 -203 -2 -368 -4 -368 -2 0 -118 66 -257 146 -140 81 -328 189 -419 242 -91 52 -324 187 -519 300 -195 112 -429 247 -520 300 -91 52 -251 145 -356 205 -358 208 -500 290 -572 329 -66 36 -80 49 -155 151 -81 110 -258 348 -665 895 -112 150 -203 275 -203 278 0 3 3 3 8 1 4 -2 111 -64 237 -137z m-4588 -89 c43 -21 122 -56 176 -77 l97 -38 0 -4456 0 -4457 -22 -20 c-56 -51 -207 -62 -287 -20 l-46 23 -3 4542 c-1 2498 0 4542 2 4542 3 0 40 -17 83 -39z m5517 -1350 c294 -170 814 -470 986 -569 91 -52 392 -226 670 -387 278 -160 573 -330 655 -378 83 -47 158 -92 168 -99 16 -12 17 -42 15 -445 l-3 -431 -155 90 c-85 50 -306 177 -490 283 -184 106 -373 215 -420 242 -728 422 -699 406 -750 411 -66 6 -106 -17 -133 -76 l-22 -47 -3 -1002 c-3 -1099 -4 -1077 57 -1202 34 -72 92 -150 130 -179 23 -16 291 -173 1126 -655 105 -60 264 -153 355 -205 91 -53 198 -114 237 -136 l73 -41 0 -252 c0 -139 -2 -253 -5 -253 -2 0 -150 84 -327 186 -178 102 -460 265 -628 362 -168 96 -357 205 -420 242 -63 37 -329 190 -590 340 -261 150 -528 304 -592 342 l-118 69 0 1945 c0 1069 3 1944 7 1944 4 0 84 -44 177 -99z m5003 -402 c88 -49 187 -138 249 -225 57 -79 128 -230 157 -330 l22 -79 3 -1437 c2 -1208 0 -1443 -11 -1471 -12 -28 -46 -52 -214 -152 l-200 -119 -7 -165 c-3 -90 -6 -543 -6 -1005 0 -1891 -43 -6131 -67 -6646 l-6 -134 32 27 c23 19 44 27 72 27 54 0 79 -27 79 -86 0 -59 -22 -104 -72 -150 -36 -32 -45 -36 -83 -32 l-42 5 -7 -105 c-3 -58 -6 -124 -6 -146 l0 -41 21 32 c43 68 122 92 166 51 47 -44 18 -170 -51 -223 -43 -33 -108 -35 -130 -3 -12 16 -16 18 -20 7 -2 -8 -12 -113 -21 -234 -60 -804 -179 -1672 -321 -2334 -19 -90 -33 -166 -30 -168 4 -5 304 164 456 257 25 15 230 134 455 265 226 131 443 257 483 281 l72 44 0 -59 0 -58 -507 -295 c-280 -163 -619 -360 -754 -439 l-247 -143 -42 -161 c-23 -88 -45 -163 -49 -167 -3 -4 -78 14 -166 39 l-160 46 -240 -140 -240 -140 -22 36 c-12 20 -22 41 -22 46 0 6 123 81 274 168 l273 158 56 227 c93 380 179 842 241 1282 14 102 28 201 31 220 l6 35 -24 -21 c-81 -74 -168 -51 -168 45 0 117 108 215 190 171 17 -9 20 -6 25 22 11 65 55 509 74 758 12 140 23 275 26 298 4 34 0 50 -15 69 -27 35 -25 89 6 149 23 45 26 66 39 279 33 548 40 982 65 4185 22 2815 24 3643 9 3637 -76 -31 -87 -31 -146 -1 -32 16 -131 72 -220 123 l-163 94 0 1691 0 1691 403 242 c221 133 406 242 411 243 5 0 42 -19 83 -41z m-3361 -1671 l854 -493 0 -1003 c0 -552 -3 -1001 -7 -999 -5 3 -372 215 -818 471 -599 345 -820 477 -847 507 -71 78 -68 27 -68 1064 0 512 3 935 7 938 3 4 11 7 16 7 6 0 394 -222 863 -492z m6184 -746 c415 -137 385 -445 -55 -563 -114 -30 -306 -31 -429 -1 -226 56 -370 184 -353 314 11 84 102 173 232 227 117 49 192 61 360 57 136 -3 159 -6 245 -34z m-735 -617 c72 -40 164 -72 265 -92 90 -17 290 -19 380 -3 143 25 289 87 384 164 l55 45 15 -52 c76 -265 176 -672 176 -713 0 -181 -226 -358 -545 -426 -133 -29 -388 -31 -515 -5 -72 15 -200 55 -262 81 -17 8 -24 -9 -43 -100 -6 -31 -6 -32 67 -58 161 -57 284 -76 491 -76 93 0 191 6 248 16 125 21 298 80 394 135 75 42 201 152 223 194 6 11 13 18 15 15 6 -6 147 -530 159 -590 20 -104 -37 -246 -138 -346 -327 -322 -1059 -402 -1551 -169 -55 26 -93 39 -93 32 -1 -7 -7 -38 -15 -70 l-14 -59 82 -38 c187 -88 420 -133 687 -133 326 0 594 65 820 199 95 56 217 165 265 237 l34 50 10 -41 c87 -321 123 -468 128 -522 12 -137 -37 -259 -156 -382 -204 -215 -539 -346 -962 -379 -336 -26 -706 42 -969 177 -52 27 -98 50 -101 52 -4 2 -12 -21 -19 -50 -6 -29 -14 -61 -17 -71 -4 -14 18 -28 109 -72 135 -65 298 -115 468 -145 157 -28 458 -38 622 -21 481 51 882 248 1062 525 28 41 51 74 52 73 1 -1 31 -106 65 -232 57 -207 64 -240 64 -325 0 -117 -26 -199 -95 -303 -180 -270 -566 -465 -1065 -539 -54 -8 -179 -13 -315 -13 -237 0 -322 9 -518 52 -200 43 -436 136 -563 220 l-39 26 3 417 c1 312 5 416 13 409 9 -7 17 12 29 67 l17 76 -26 27 -26 27 1 465 c0 438 1 463 17 439 45 -67 186 -199 199 -187 3 3 11 36 19 72 l14 66 -53 54 c-91 92 -148 231 -131 322 5 31 58 236 145 566 l10 38 65 -70 c58 -63 130 -119 138 -110 2 2 10 33 18 69 l14 65 -52 52 c-28 28 -64 76 -79 107 -42 86 -38 131 39 421 100 375 118 439 123 448 2 4 25 -11 51 -34 26 -22 74 -56 107 -74z m-7968 -207 c31 -35 36 -63 19 -121 -32 -110 -153 -173 -201 -104 -8 12 -15 41 -15 65 0 119 134 228 197 160z m-404 -89 c83 -38 48 -202 -55 -255 -50 -26 -91 -14 -116 33 -34 63 23 184 103 219 37 16 39 16 68 3z m680 -69 c84 -67 -4 -260 -118 -260 -40 0 -75 41 -75 88 0 59 47 142 96 169 49 28 64 28 97 3z m1744 -912 l1353 -781 0 -979 c0 -538 -2 -978 -5 -978 -15 0 -3855 2224 -3853 2231 2 5 255 298 563 653 356 410 565 643 574 640 8 -2 623 -356 1368 -786z m-2781 617 c53 -81 -34 -245 -129 -245 -75 0 -101 91 -54 181 45 84 146 120 183 64z m379 -110 c47 -46 23 -149 -49 -213 -88 -77 -183 -10 -146 105 36 111 137 167 195 108z m328 -22 c44 -50 27 -144 -40 -210 -36 -36 -49 -43 -82 -43 -71 0 -101 72 -65 158 17 42 59 90 89 102 34 15 81 11 98 -7z m-983 -363 c15 -28 12 -98 -5 -134 -42 -88 -138 -132 -181 -84 -28 31 -34 58 -22 111 11 56 68 124 111 135 38 10 84 -3 97 -28z m334 -22 c20 -28 21 -98 2 -141 -20 -48 -77 -97 -120 -104 -108 -17 -119 158 -14 241 44 34 110 36 132 4z m293 -8 c125 -44 8 -298 -122 -266 -25 6 -55 51 -55 83 0 81 60 159 146 193 1 0 15 -5 31 -10z m-302 -425 c45 -45 27 -153 -37 -212 -74 -69 -158 -44 -158 48 0 61 13 96 53 138 54 57 103 66 142 26z m-440 -40 c69 -68 -21 -245 -125 -245 -81 0 -104 96 -45 190 49 77 124 102 170 55z m720 -335 c107 -62 433 -251 1420 -820 121 -70 339 -196 485 -280 146 -84 321 -185 390 -225 69 -39 202 -116 295 -170 332 -193 773 -447 992 -573 l223 -127 0 -272 c0 -150 -2 -273 -4 -273 -2 0 -84 46 -182 103 -305 176 -692 399 -851 491 -100 58 -166 90 -194 93 -60 8 -102 -17 -134 -80 -25 -51 -25 -53 -25 -317 l0 -266 -47 -55 c-25 -30 -83 -103 -128 -164 -45 -60 -99 -126 -119 -144 l-36 -35 0 560 c0 620 1 614 -66 745 -54 108 -106 156 -267 250 -78 45 -329 190 -557 321 -228 132 -476 275 -551 319 -159 93 -204 104 -258 67 -19 -13 -44 -39 -55 -58 -21 -34 -21 -49 -24 -833 -3 -886 -5 -852 64 -990 66 -130 76 -137 638 -462 281 -162 519 -300 529 -307 15 -12 9 -18 -57 -62 -41 -26 -84 -58 -95 -70 -50 -53 -79 -174 -64 -270 l8 -50 -80 -54 c-462 -314 -783 -778 -900 -1297 -76 -339 -80 -646 -14 -1055 64 -398 248 -994 499 -1614 33 -82 58 -151 56 -153 -2 -2 -57 27 -122 65 -65 37 -189 108 -274 156 -194 111 -263 160 -329 232 -111 122 -211 306 -259 481 l-27 98 -3 3583 -2 3583 22 -12 c13 -6 59 -33 103 -59z m-611 -52 c18 -25 21 -94 6 -132 -17 -45 -79 -105 -117 -112 -116 -22 -132 148 -23 240 42 35 111 37 134 4z m266 -148 c41 -22 44 -105 7 -177 -39 -75 -133 -107 -178 -62 -18 18 -21 30 -17 80 8 114 110 201 188 159z m-4090 -1383 l0 -414 -85 -42 c-99 -49 -179 -122 -216 -196 -23 -48 -24 -58 -24 -245 0 -180 2 -199 22 -243 50 -108 198 -209 379 -259 107 -29 365 -32 464 -5 203 55 341 147 396 262 23 47 24 61 24 246 0 190 -1 197 -26 247 -34 69 -128 153 -219 197 l-75 36 0 360 c0 197 2 359 5 359 3 0 457 -266 1010 -591 l1005 -591 0 -188 0 -188 -1007 -588 c-638 -372 -1034 -598 -1078 -613 -63 -23 -86 -25 -225 -26 -162 0 -219 9 -340 57 -81 32 -2147 1249 -2202 1297 -51 45 -88 111 -88 157 0 34 35 94 70 122 47 36 2075 1216 2130 1239 30 12 61 23 68 23 9 0 12 -89 12 -413z m5151 361 c19 -6 102 -50 184 -98 335 -194 428 -248 610 -353 105 -60 209 -127 233 -150 25 -24 59 -75 80 -117 l37 -75 3 -595 3 -596 -23 -43 c-42 -79 -117 -99 -206 -54 -137 70 -954 552 -985 581 -49 47 -84 107 -108 183 -18 57 -19 100 -19 623 0 393 3 573 11 597 29 84 102 124 180 97z m10241 -302 c232 -134 438 -257 456 -274 34 -31 40 -58 20 -84 -19 -25 -2406 -1399 -2458 -1416 -61 -19 -189 -10 -260 17 -30 12 -260 140 -510 285 l-455 263 -3 142 c-1 79 1 141 5 139 5 -1 58 -24 118 -50 220 -94 475 -155 745 -179 179 -16 495 -6 665 20 803 122 1345 567 1312 1076 -4 51 -19 136 -36 198 -16 59 -28 107 -26 107 2 0 194 -110 427 -244z m-508 -101 c0 -107 -3 -127 -27 -189 -42 -107 -94 -184 -187 -276 -101 -101 -201 -172 -348 -245 -472 -235 -1157 -287 -1705 -129 -133 38 -297 101 -372 142 l-50 27 -3 187 -2 188 87 -44 c594 -296 1452 -296 2047 1 232 115 396 260 501 439 37 62 39 65 49 43 5 -13 10 -78 10 -144z m-14884 -590 c0 -78 16 -119 61 -162 57 -54 121 -76 231 -81 116 -5 211 19 271 69 51 42 68 79 74 165 l6 73 39 -20 c86 -44 148 -121 148 -184 0 -39 -35 -99 -77 -135 -209 -174 -678 -170 -874 7 -75 68 -88 133 -44 209 22 38 131 124 156 124 5 0 9 -29 9 -65z m7312 -249 c35 -18 137 -76 228 -129 91 -53 285 -165 432 -249 l267 -153 0 -70 c0 -52 -2 -66 -10 -53 -11 20 -23 27 -596 357 -221 127 -411 231 -422 231 -11 0 -25 -9 -30 -19 -8 -14 -24 -20 -60 -23 -49 -3 -50 -2 -44 22 16 70 74 119 140 120 17 0 60 -15 95 -34z m195 -407 c147 -85 288 -172 311 -194 54 -49 76 -91 141 -277 49 -140 51 -150 51 -252 0 -58 -3 -106 -6 -106 -3 0 -69 24 -147 54 -311 120 -307 119 -387 119 -84 0 -170 -27 -220 -70 -62 -52 -61 -155 3 -209 74 -63 329 -164 502 -198 61 -12 230 -36 252 -36 2 0 3 -21 3 -46 l0 -45 -337 3 c-371 5 -391 7 -563 77 -133 55 -172 52 -327 -21 -48 -22 -135 -63 -193 -89 l-105 -48 -6 68 c-9 92 -33 171 -81 264 -46 89 -157 214 -224 253 -24 14 -42 29 -39 34 2 4 96 72 207 151 237 169 325 251 465 439 183 245 246 293 370 286 59 -3 74 -11 330 -157z m-9710 -4 c35 -22 63 -42 63 -45 0 -3 -65 -49 -145 -102 l-145 -97 -35 20 c-37 22 -54 61 -38 88 11 18 225 182 233 178 3 -1 33 -20 67 -42z m429 -257 c77 -44 175 -102 219 -128 44 -26 208 -122 365 -215 258 -152 625 -368 899 -528 l104 -61 -6 -150 c-4 -83 -9 -163 -13 -178 -6 -26 -7 -27 -33 -13 -15 7 -281 163 -592 346 -719 423 -982 578 -1198 704 -95 56 -173 105 -173 109 0 8 271 194 283 195 4 1 69 -36 145 -81z m7849 -595 c16 -9 60 -46 96 -83 143 -144 211 -382 137 -475 -19 -25 -26 -27 -74 -23 -36 3 -66 14 -95 32 l-42 28 42 37 c50 44 75 101 66 150 -23 120 -127 199 -250 189 l-55 -5 0 49 c0 57 22 105 53 118 27 11 81 4 122 -17z m-5451 -420 c19 -66 30 -167 30 -290 1 -78 -2 -144 -5 -147 -3 -3 -25 -2 -49 2 l-44 7 3 105 c2 93 -4 157 -25 281 -6 36 -5 37 32 47 54 14 52 14 58 -5z m-534 -29 c52 -13 112 -26 133 -29 l37 -6 0 -142 c0 -142 -8 -197 -33 -231 -13 -18 -16 -18 -88 -1 -98 24 -229 79 -229 96 0 4 7 26 15 50 12 34 34 214 35 288 0 9 6 11 18 5 9 -4 60 -18 112 -30z m6968 -8 c31 -13 95 -35 142 -49 71 -20 155 -65 505 -267 231 -134 445 -257 475 -275 l55 -31 3 -2502 c1 -1376 0 -2502 -3 -2502 -5 0 -301 170 -1650 950 -82 47 -258 148 -390 224 -132 76 -245 143 -251 150 -7 6 -56 115 -109 241 -417 979 -614 1583 -672 2052 -23 188 -22 491 1 638 81 512 327 910 743 1198 l52 37 75 -54 c121 -87 240 -107 324 -56 18 11 81 42 140 69 105 48 218 101 357 166 85 40 128 43 203 11z m1042 -177 l140 -82 0 -48 c0 -35 -4 -49 -14 -49 -11 0 -441 241 -455 256 -2 2 39 4 92 4 l97 0 140 -81z m5295 -878 c158 -42 291 -124 329 -205 78 -165 -121 -334 -444 -376 -339 -44 -700 112 -700 302 0 127 168 247 413 294 101 19 299 12 402 -15z m-10737 -317 l-3 -176 -520 -300 c-286 -164 -630 -363 -765 -440 -135 -78 -328 -189 -430 -248 -102 -58 -407 -234 -678 -390 l-494 -284 -104 -151 c-96 -139 -104 -154 -104 -198 0 -50 25 -112 56 -138 9 -8 128 -78 263 -156 268 -156 288 -163 345 -119 17 13 78 50 136 83 58 33 197 113 310 178 376 216 602 347 895 515 160 92 396 228 525 302 129 75 309 178 400 231 l165 95 2 -57 c2 -31 4 -183 5 -337 l3 -282 -165 -5 c-191 -5 -284 -27 -424 -100 -139 -72 -223 -176 -247 -303 -6 -32 -65 -261 -131 -509 -66 -247 -149 -560 -184 -695 -36 -134 -67 -246 -69 -249 -2 -2 -98 50 -212 116 -114 66 -352 204 -528 305 -176 102 -380 220 -452 262 -73 42 -190 109 -260 150 -71 40 -213 123 -318 183 -589 340 -724 419 -759 447 -54 44 -86 103 -86 159 0 58 35 101 124 154 33 19 381 220 771 445 902 521 1076 621 1260 728 83 48 285 165 450 260 165 95 354 205 420 243 66 38 170 98 230 132 61 35 211 122 335 194 124 71 228 130 233 130 4 1 6 -78 5 -175z m12069 -145 c43 -6 116 -23 163 -38 l85 -28 -70 -7 c-106 -12 -257 -44 -360 -77 -152 -48 -276 -106 -505 -237 l-55 -31 -52 30 -53 31 0 89 0 90 78 35 c154 70 369 133 502 147 77 8 193 6 267 -4z m-2067 -314 l0 -155 55 0 55 0 0 136 0 135 23 -7 c73 -23 67 -7 67 -179 l0 -155 55 0 55 0 0 146 0 146 23 -6 c12 -3 34 -6 50 -6 l27 0 0 -160 0 -161 58 3 57 3 3 151 c3 168 1 163 75 164 l27 0 0 -156 0 -156 48 7 c65 9 218 61 272 92 25 14 64 41 88 60 l42 34 0 -56 c0 -104 -62 -185 -192 -247 -129 -63 -222 -82 -388 -82 -170 1 -255 19 -387 84 -92 45 -166 117 -183 178 -5 20 -10 106 -10 190 l0 152 40 0 40 0 0 -155z m-10000 -73 l0 -198 -1254 -722 c-690 -397 -1257 -722 -1260 -722 -2 0 -23 48 -45 106 -23 58 -55 126 -72 151 -17 25 -27 48 -23 53 8 7 2645 1529 2652 1530 1 0 2 -89 2 -198z m12268 -134 l3 -67 187 -98 c103 -53 209 -109 235 -125 l48 -28 104 23 104 24 100 -56 c56 -31 101 -58 101 -61 0 -8 -891 -201 -925 -200 -70 1 -113 37 -292 245 -123 143 -185 207 -217 225 -25 14 -46 28 -46 31 0 12 211 90 307 115 91 23 226 43 268 40 18 -1 20 -9 23 -68z m284 16 c97 -32 118 -49 128 -102 l7 -42 -141 74 c-85 45 -142 81 -144 91 -3 15 2 17 35 11 21 -4 73 -18 115 -32z m-1307 -28 c11 -7 62 -35 113 -61 50 -27 92 -51 92 -54 0 -3 -172 -105 -382 -226 -409 -236 -469 -279 -546 -395 -54 -81 -124 -244 -197 -462 l-62 -187 -469 264 c-258 145 -470 269 -472 277 -8 42 162 518 221 617 43 73 131 160 195 194 30 16 54 27 55 25 1 -1 15 -29 31 -61 58 -117 218 -221 421 -273 84 -22 123 -27 245 -27 83 -1 171 4 205 11 265 57 450 176 503 324 19 53 19 54 47 34z m-11247 -287 l-3 -71 -1205 -694 c-663 -381 -1208 -690 -1212 -686 -3 4 -16 30 -27 58 l-20 51 1227 706 c675 389 1231 707 1235 707 4 0 7 -32 5 -71z m8552 -79 c41 -41 38 -107 -9 -181 -75 -118 -203 -92 -188 39 12 109 138 201 197 142z m299 -186 c59 -131 -139 -319 -204 -194 -27 53 -11 122 42 181 57 63 136 69 162 13z m90 -370 c56 -71 -3 -217 -98 -244 -63 -18 -101 15 -101 89 0 53 15 89 53 130 56 58 112 68 146 25z m-440 -40 c60 -76 -28 -244 -128 -244 -54 0 -76 27 -75 95 1 124 142 227 203 149z m1176 -252 c182 -102 378 -212 438 -245 59 -33 107 -66 107 -73 0 -6 -9 -56 -20 -110 -12 -55 -27 -139 -35 -188 -8 -49 -17 -91 -19 -93 -5 -5 -77 36 -556 312 -151 88 -296 171 -322 185 -33 17 -48 31 -48 45 0 27 24 180 46 292 l18 92 30 -16 c17 -9 180 -99 361 -201z m2155 63 c0 -2 -62 -39 -137 -83 -76 -44 -199 -115 -273 -157 -74 -43 -262 -151 -416 -241 l-282 -161 -22 39 c-19 34 -20 42 -9 53 8 7 106 66 219 130 113 65 264 152 335 193 72 42 175 101 230 133 55 31 147 84 204 118 l105 60 23 -40 c13 -23 23 -42 23 -44z m1063 71 c18 -7 42 -26 52 -42 20 -28 20 -54 20 -1154 l0 -1125 -32 -65 c-18 -36 -45 -77 -60 -92 -15 -15 -212 -133 -438 -263 -1095 -633 -1084 -626 -1310 -757 -99 -58 -211 -122 -248 -143 -106 -58 -174 -49 -211 29 -15 32 -16 127 -14 1153 l3 1118 21 46 c31 66 85 122 162 167 56 32 497 287 872 504 52 30 289 167 525 304 437 253 585 334 611 334 8 0 29 -6 47 -14z m-15651 -223 c17 -18 56 -105 107 -237 44 -116 79 -211 77 -213 -5 -5 -370 207 -378 221 -4 6 -6 17 -3 23 8 23 156 233 164 233 4 0 19 -12 33 -27z m10264 -9 c55 -82 -32 -244 -130 -244 -73 0 -100 91 -53 181 45 84 146 120 183 63z m-7416 -45 c205 -52 349 -171 350 -288 0 -110 -132 -227 -320 -281 -107 -31 -316 -39 -430 -16 -214 44 -362 150 -385 277 -10 53 26 130 84 180 154 137 453 191 701 128z m8080 -9 c24 -24 27 -94 7 -143 -21 -48 -91 -107 -128 -107 -44 0 -67 16 -78 55 -34 123 120 274 199 195z m331 -39 c43 -54 2 -175 -74 -221 -124 -76 -187 82 -80 201 35 39 82 60 116 51 9 -2 27 -16 38 -31z m338 -27 c69 -87 -47 -267 -154 -240 -25 6 -55 51 -55 83 0 45 25 97 64 138 37 39 48 45 84 45 32 0 45 -6 61 -26z m-7102 -93 l23 -39 -203 -118 c-111 -64 -249 -145 -307 -179 l-105 -63 -22 37 c-13 20 -23 41 -23 46 0 6 40 32 88 59 48 27 112 64 142 82 237 140 367 214 375 214 6 0 20 -18 32 -39z m7943 -303 c168 -97 338 -195 378 -218 l72 -42 0 -1405 0 -1405 -32 20 c-18 11 -184 106 -368 212 -184 106 -379 217 -432 248 l-98 56 0 1381 c0 759 3 1390 6 1402 6 21 9 20 87 -26 45 -27 219 -127 387 -223z m-13477 98 c18 -14 66 -44 108 -68 l77 -43 -148 -98 -148 -98 -76 43 c-121 69 -117 91 42 208 59 44 108 79 110 80 2 0 18 -11 35 -24z m11962 -71 c88 -87 -66 -311 -163 -238 -68 51 -33 186 62 244 42 26 72 24 101 -6z m-768 -11 c22 -22 25 -32 21 -79 -8 -92 -74 -169 -145 -169 -78 0 -104 95 -50 186 49 84 125 111 174 62z m-4880 -165 c125 -73 234 -137 241 -144 7 -6 73 -151 146 -321 73 -170 175 -401 226 -514 50 -113 98 -220 106 -237 14 -32 14 -32 -108 39 -68 39 -206 119 -308 178 -102 59 -302 174 -445 257 -143 82 -352 203 -465 268 -113 64 -231 133 -263 152 l-59 35 349 209 c191 114 349 208 350 209 1 0 104 -59 230 -131z m-3159 19 c62 -42 155 -83 253 -110 73 -19 107 -22 264 -22 153 0 192 3 258 22 108 30 231 90 300 146 32 26 60 46 61 44 2 -2 44 -160 94 -353 104 -394 109 -437 67 -521 -30 -60 -82 -114 -89 -93 -3 8 -33 140 -67 294 -34 154 -63 281 -64 283 -3 4 -126 -26 -132 -32 -3 -2 27 -147 66 -321 39 -175 71 -322 71 -329 0 -12 -70 -47 -158 -77 -245 -84 -577 -84 -822 2 -47 16 -93 32 -102 35 -16 6 -23 -16 -42 -123 -2 -12 116 -54 224 -80 132 -31 379 -42 524 -24 116 15 252 50 346 90 l70 30 5 -22 c3 -12 17 -74 31 -137 14 -63 27 -116 29 -119 5 -5 116 17 123 24 3 3 -11 78 -31 167 l-36 162 41 35 c22 19 58 57 79 84 22 27 39 47 39 44 0 -3 36 -140 80 -305 44 -164 80 -317 80 -339 0 -121 -82 -260 -213 -359 -177 -134 -458 -224 -754 -240 -259 -14 -587 51 -772 152 -24 13 -45 23 -46 22 -4 -7 -25 -112 -25 -128 0 -22 163 -92 297 -126 179 -45 299 -57 523 -51 215 6 311 20 476 70 246 75 452 211 554 365 19 29 31 40 35 31 7 -20 61 -222 101 -378 66 -258 36 -387 -130 -559 -177 -184 -464 -308 -821 -358 -93 -12 -168 -15 -330 -11 -323 8 -535 56 -779 179 -54 27 -100 48 -101 46 -1 -2 -9 -33 -18 -70 l-15 -66 92 -45 c163 -80 362 -139 566 -168 143 -21 507 -18 645 4 230 38 386 87 558 174 187 96 347 233 419 359 17 31 34 52 38 47 3 -4 33 -107 65 -228 68 -253 79 -351 50 -452 -86 -296 -429 -550 -898 -663 -206 -50 -331 -64 -557 -64 -285 0 -484 30 -727 109 -238 78 -425 187 -563 326 -152 155 -220 332 -190 499 6 36 32 142 56 235 25 94 50 187 55 208 l10 38 48 -73 c50 -76 194 -223 209 -214 5 3 15 37 22 77 12 64 12 72 -2 80 -31 17 -118 137 -150 205 -27 58 -33 83 -36 159 -3 85 0 104 61 330 35 132 68 253 71 269 l7 29 21 -34 c51 -85 192 -221 208 -202 4 4 13 36 20 70 l13 62 -58 63 c-78 84 -119 171 -123 263 -3 61 6 106 72 357 42 157 76 289 76 292 0 16 17 2 40 -31 24 -35 146 -143 161 -143 4 0 15 31 23 70 l16 69 -50 47 c-67 63 -110 150 -110 222 0 38 27 157 86 376 47 177 90 337 95 357 l9 37 32 -30 c18 -16 52 -43 76 -60z m9200 36 c63 -71 -29 -244 -131 -244 -76 0 -99 104 -42 195 52 84 123 104 173 49z m-11890 -82 c158 -91 259 -149 1088 -628 336 -194 625 -361 642 -371 l30 -18 -148 -98 -148 -98 -143 84 c-79 46 -292 170 -474 274 -181 105 -427 247 -545 315 -118 68 -331 191 -473 273 -142 81 -256 152 -255 157 3 9 268 186 281 187 5 1 70 -34 145 -77z m11502 -252 c24 -24 27 -94 7 -143 -21 -48 -91 -107 -128 -107 -44 0 -67 16 -78 55 -17 61 15 144 71 189 41 32 99 35 128 6z m-4415 -437 c182 -105 578 -333 880 -508 303 -175 622 -359 710 -410 88 -51 177 -102 198 -115 l37 -22 0 -187 c0 -265 -18 -342 -94 -409 -41 -36 -85 -47 -165 -39 -75 6 -91 15 -631 327 -250 145 -531 306 -623 359 l-169 96 -82 165 c-132 266 -436 932 -436 955 0 4 10 1 23 -7 12 -8 171 -101 352 -205z m-2550 -308 c94 -54 238 -137 320 -185 83 -48 359 -208 615 -355 256 -148 517 -298 580 -335 63 -36 174 -100 245 -142 72 -41 324 -187 560 -323 237 -137 431 -251 433 -255 1 -4 38 -63 80 -131 468 -746 887 -1197 1307 -1407 208 -103 373 -146 570 -145 416 2 775 243 1082 726 122 193 267 501 368 783 45 126 49 132 89 155 22 12 176 101 341 197 165 96 386 224 490 285 105 60 246 142 315 182 69 40 199 116 290 168 l165 96 5 -562 c5 -551 5 -563 26 -602 12 -22 30 -47 40 -56 11 -9 269 -160 575 -336 365 -211 569 -323 596 -327 62 -11 124 16 378 163 127 74 462 267 745 431 283 164 531 306 550 318 19 11 251 145 515 297 264 152 537 310 607 351 70 41 130 74 133 74 7 0 557 -319 568 -329 4 -4 -84 -59 -195 -123 -112 -64 -275 -158 -363 -209 -88 -50 -232 -133 -320 -184 -534 -307 -921 -530 -1065 -613 -91 -53 -280 -162 -420 -242 -140 -81 -347 -200 -460 -265 -268 -154 -497 -286 -695 -400 -449 -258 -918 -528 -1065 -613 -145 -84 -491 -284 -951 -548 -80 -46 -153 -92 -161 -101 -24 -28 -177 -251 -193 -283 -8 -16 -15 -42 -15 -57 1 -39 32 -103 66 -134 33 -30 461 -278 510 -296 36 -13 32 -15 181 73 49 29 189 110 313 181 124 72 329 190 455 263 127 73 383 220 570 328 187 107 408 234 490 282 161 92 750 431 1165 670 140 81 347 200 460 265 113 65 277 159 365 210 305 175 900 518 1125 648 85 49 220 127 300 172 648 371 594 337 609 382 14 39 13 45 -17 128 -17 47 -27 85 -22 83 4 -2 122 -68 261 -148 338 -195 405 -257 385 -362 -11 -59 -54 -94 -271 -219 -115 -67 -282 -163 -370 -214 -88 -51 -322 -186 -520 -300 -198 -115 -508 -294 -690 -398 -540 -311 -620 -358 -855 -494 -208 -120 -371 -214 -690 -398 -69 -40 -170 -98 -225 -130 -161 -93 -511 -295 -935 -540 -217 -125 -478 -276 -580 -335 -102 -58 -293 -169 -425 -245 -132 -76 -276 -159 -320 -185 -107 -63 -177 -88 -290 -102 -73 -9 -118 -8 -197 1 -169 21 -248 52 -509 203 -129 74 -412 238 -629 363 -217 126 -449 259 -515 298 -66 38 -165 95 -220 127 -55 32 -246 143 -425 246 -179 103 -392 226 -475 274 -82 47 -298 172 -480 277 -181 104 -492 284 -690 398 -198 114 -416 240 -485 280 -69 40 -269 155 -445 257 -176 102 -394 228 -485 280 -91 52 -268 155 -395 228 -126 73 -304 176 -395 228 -91 52 -259 150 -375 217 -115 67 -316 182 -445 257 -345 199 -394 227 -408 236 -7 5 -80 262 -162 573 -83 310 -166 623 -185 694 -19 72 -55 206 -80 300 -25 93 -45 173 -45 177 0 5 33 -16 73 -45 39 -30 149 -98 242 -152z m-2544 -152 c45 -27 82 -50 83 -53 0 -3 -17 -74 -39 -158 -25 -98 -43 -152 -51 -150 -25 6 -374 213 -371 221 3 11 270 186 284 187 6 0 48 -21 94 -47z m15483 -1132 c38 -40 128 -262 112 -277 -13 -14 -5764 -3324 -5774 -3324 -4 0 -25 48 -47 107 -22 59 -55 128 -74 152 -19 25 -30 47 -25 49 5 2 1303 750 2884 1662 1581 912 2880 1659 2886 1659 5 1 23 -12 38 -28z m-4414 -546 c151 -87 303 -175 337 -194 l63 -36 0 -132 0 -132 -92 53 c-111 63 -571 328 -715 412 -79 45 -105 66 -113 88 -5 16 -10 77 -10 137 l0 108 128 -73 c70 -40 251 -144 402 -231z m4625 41 c5 -19 -293 -193 -2880 -1681 -1587 -913 -2889 -1661 -2894 -1663 -10 -3 -55 108 -46 116 3 3 1304 753 2893 1668 l2887 1662 18 -40 c9 -22 20 -50 22 -62z m-12665 -113 c235 -136 1375 -794 2040 -1178 212 -122 648 -374 970 -560 322 -186 684 -395 805 -465 121 -69 294 -169 385 -222 183 -106 1250 -722 1485 -857 83 -48 325 -188 539 -311 l388 -225 -4 -155 c-3 -85 -9 -164 -14 -175 -8 -19 -41 -2 -464 242 -250 145 -552 319 -670 387 -548 316 -854 493 -1280 739 -124 72 -268 155 -320 185 -52 30 -225 130 -385 222 -159 92 -452 261 -650 375 -198 115 -439 254 -535 310 -96 55 -448 258 -781 451 -558 321 -608 352 -619 383 -20 55 -75 106 -183 169 -124 73 -722 418 -829 479 -87 49 -74 25 -137 261 l-30 113 32 -19 c18 -11 133 -78 257 -149z m5119 -120 c-37 -87 -131 -254 -199 -357 -163 -242 -330 -390 -510 -449 -238 -79 -491 -12 -788 208 -95 70 -308 280 -416 410 -131 158 -129 154 -81 126 317 -186 528 -302 605 -334 235 -98 459 -100 636 -8 33 17 219 125 414 240 195 115 356 210 357 210 1 1 -7 -20 -18 -46z m-8631 -335 c-38 -134 -49 -310 -24 -408 38 -150 130 -297 264 -421 397 -367 1121 -547 1827 -454 524 69 977 292 1197 588 154 208 192 408 127 667 -17 67 -29 124 -27 126 10 9 855 -489 886 -521 37 -40 38 -46 15 -73 -10 -11 -558 -332 -1218 -713 -957 -552 -1212 -695 -1260 -707 -75 -17 -169 -9 -245 22 -65 26 -2358 1348 -2400 1383 -36 30 -43 58 -20 85 17 21 874 525 896 527 7 1 0 -39 -18 -101z m16927 -75 c24 -56 62 -209 70 -280 l7 -63 -51 0 c-50 0 -51 1 -51 29 0 46 -26 159 -55 240 -15 40 -25 74 -23 76 11 9 65 34 75 35 7 0 20 -17 28 -37z m-16745 -85 c45 -81 210 -249 311 -316 218 -145 490 -245 814 -299 159 -26 622 -26 780 0 553 93 970 330 1141 651 l32 59 12 -59 c19 -91 9 -235 -22 -312 -125 -307 -479 -552 -963 -667 -206 -49 -312 -60 -595 -60 -283 0 -384 10 -594 60 -472 112 -857 375 -966 662 -29 74 -38 228 -20 314 15 69 12 71 70 -33z m9901 -2210 c20 -39 80 -190 139 -349 l29 -77 -182 105 c-206 119 -207 120 -207 140 0 14 110 181 148 225 20 24 46 8 73 -44z m867 -1124 c15 -69 28 -320 18 -358 -7 -27 -26 -32 -73 -20 -22 6 -23 10 -23 133 -1 69 -7 162 -15 206 -8 43 -13 80 -12 81 6 6 73 22 82 20 6 -1 16 -29 23 -62z m-527 13 c41 -9 91 -19 112 -22 l37 -6 0 -150 c0 -156 -11 -212 -45 -226 -23 -8 -166 31 -244 67 -52 25 -62 33 -56 47 21 49 36 127 41 224 l7 107 37 -13 c20 -7 70 -20 111 -28z"
       id="path4" />
    <path
       d="M18537 32785 c-111 -39 -124 -137 -25 -183 50 -23 118 -35 118 -21 0 46 -35 219 -44 219 -6 -1 -28 -7 -49 -15z"
       id="path6" />
    <path
       d="M18670 32693 c10 -67 20 -108 28 -111 23 -7 101 28 122 55 22 28 26 64 9 94 -13 26 -104 69 -144 69 l-31 0 16 -107z"
       id="path8" />
    <path
       d="M23127 32385 c-58 -20 -87 -52 -87 -95 0 -56 54 -98 148 -114 38 -7 38 -9 17 119 -8 50 -15 93 -15 98 0 10 -19 8 -63 -8z"
       id="path10" />
    <path
       d="M23251 32373 c0 -42 24 -182 32 -189 13 -13 90 18 119 46 55 56 23 130 -70 158 -65 20 -82 16 -81 -15z"
       id="path12" />
    <path
       d="M13476 32434 c-47 -46 28 -194 98 -194 32 0 46 19 46 62 0 48 -20 88 -60 122 -36 30 -62 33 -84 10z"
       id="path14" />
    <path
       d="M12565 32399 c-86 -13 -159 -36 -253 -80 -305 -142 -508 -439 -588 -859 -25 -133 -30 -511 -10 -680 120 -981 737 -2046 1524 -2628 251 -186 560 -333 800 -381 507 -103 924 87 1142 519 214 424 212 1078 -5 1735 -378 1148 -1267 2129 -2120 2343 -164 41 -341 52 -490 31z m450 -163 c456 -119 930 -462 1326 -958 476 -597 785 -1319 850 -1988 18 -187 7 -453 -26 -609 -87 -418 -301 -677 -640 -773 -116 -32 -339 -32 -475 1 -368 90 -729 311 -1081 661 -805 800 -1274 2040 -1098 2903 82 405 307 682 621 766 109 30 111 30 273 26 122 -2 169 -8 250 -29z"
       id="path16" />
    <path
       d="M12840 31103 c-31 -27 -38 -49 -141 -433 -123 -458 -129 -500 -86 -593 56 -120 252 -254 341 -231 49 12 65 45 121 250 30 109 61 221 70 248 8 27 13 51 11 53 -15 16 -227 130 -230 125 -5 -9 -36 -127 -36 -139 0 -5 16 -17 36 -26 25 -13 34 -22 30 -35 -3 -9 -17 -60 -31 -112 -39 -142 -45 -158 -61 -164 -26 -10 -90 30 -108 68 -16 35 -16 37 84 413 56 208 107 384 114 391 18 18 58 6 94 -29 37 -36 43 -67 26 -132 -15 -59 -21 -52 77 -102 l66 -34 13 74 c15 87 9 146 -22 211 -45 97 -190 206 -291 220 -39 6 -48 3 -77 -23z"
       id="path18" />
    <path
       d="M13452 30775 c-43 -19 -47 -31 -128 -336 -38 -140 -69 -255 -70 -257 -1 -2 -21 6 -44 18 -23 12 -44 19 -46 17 -3 -2 -13 -34 -23 -71 l-18 -66 43 -27 c24 -16 44 -32 44 -37 0 -5 -19 -74 -41 -154 -40 -140 -41 -146 -23 -159 24 -18 136 -75 139 -71 1 2 19 69 41 151 21 81 43 147 49 147 5 0 39 -18 75 -38 49 -29 64 -43 62 -58 -2 -10 -19 -71 -37 -134 -18 -63 -35 -127 -38 -141 -6 -23 0 -28 71 -66 l78 -40 123 461 c137 516 143 554 101 641 -32 68 -122 153 -200 192 -82 40 -116 46 -158 28z m175 -214 c25 -19 53 -63 53 -83 0 -8 -28 -118 -63 -245 l-63 -231 -64 35 c-36 19 -69 38 -74 43 -10 10 114 478 132 497 16 15 44 9 79 -16z"
       id="path20" />
    <path
       d="M14012 30447 c-37 -21 -49 -47 -86 -185 -60 -221 -48 -285 83 -440 106 -127 109 -136 69 -292 -17 -69 -36 -131 -41 -137 -24 -32 -105 4 -127 56 -11 26 -10 40 4 89 9 32 16 66 16 75 0 15 -123 97 -146 97 -6 0 -19 -42 -29 -92 -17 -88 -17 -97 -1 -157 27 -106 112 -197 236 -255 88 -41 150 -29 183 36 31 60 87 293 89 370 3 94 -25 157 -115 260 -106 122 -111 139 -75 272 33 125 59 142 125 82 33 -29 37 -40 37 -77 0 -24 -4 -60 -8 -79 l-8 -36 72 -38 c43 -22 76 -34 82 -28 13 13 27 157 18 196 -29 131 -186 276 -313 291 -25 3 -51 0 -65 -8z"
       id="path22" />
    <path
       d="M13530 27830 c-53 -53 27 -196 104 -188 29 3 31 6 34 47 4 52 -10 90 -46 124 -40 37 -67 42 -92 17z"
       id="path24" />
    <path
       d="M18730 29617 c0 -33 28 -208 34 -214 3 -3 26 2 53 11 101 35 134 109 73 166 -30 28 -65 43 -127 54 -29 5 -33 3 -33 -17z"
       id="path26" />
    <path
       d="M18594 29611 c-128 -58 -84 -186 71 -208 53 -7 50 -15 30 117 -8 52 -15 98 -15 103 0 13 -44 7 -86 -12z"
       id="path28" />
    <path
       d="M19307 28139 c-15 -11 -31 -38 -37 -60 -10 -35 -14 -39 -44 -39 -30 0 -34 -4 -40 -31 -9 -49 -8 -54 23 -72 l29 -17 -34 -167 c-35 -172 -47 -213 -62 -213 -5 0 -26 11 -46 25 l-36 24 0 -67 c0 -76 6 -84 97 -131 50 -25 81 -27 110 -6 27 19 33 40 79 260 20 99 38 181 39 183 2 2 17 -4 34 -12 43 -23 45 -21 59 29 16 62 17 61 -27 86 -28 16 -37 26 -34 40 7 25 16 24 52 -7 l30 -25 14 34 c31 72 31 73 -16 111 -45 37 -120 75 -148 76 -9 0 -28 -9 -42 -21z"
       id="path30" />
    <path
       d="M19540 27848 c0 -13 -12 -79 -26 -148 -31 -148 -28 -219 11 -286 44 -74 128 -118 172 -89 22 15 23 15 23 -17 0 -30 6 -36 58 -65 l59 -32 32 157 c18 86 39 186 48 221 18 73 27 58 -80 119 -39 22 -59 28 -61 20 -2 -7 -13 -64 -25 -127 -23 -119 -43 -171 -65 -171 -19 0 -46 33 -46 57 0 19 43 235 56 280 5 18 -4 26 -58 56 -92 52 -98 54 -98 25z"
       id="path32" />
    <path
       d="M20053 27524 c-18 -9 -43 -33 -55 -53 -20 -32 -23 -49 -23 -146 0 -103 2 -113 29 -163 51 -92 155 -165 251 -179 l45 -6 0 60 0 60 -46 7 c-62 8 -113 41 -131 84 -8 19 -13 36 -11 37 2 2 30 -9 63 -25 74 -36 135 -40 166 -9 19 19 21 30 17 94 -4 62 -10 79 -38 119 -38 53 -116 108 -175 125 -51 14 -54 14 -92 -5z"
       id="path34" />
    <path
       d="M20506 27483 c-3 -10 -12 -54 -20 -98 -9 -44 -34 -170 -56 -281 -22 -110 -40 -203 -40 -207 0 -7 140 -90 145 -85 2 1 21 93 44 203 22 110 51 244 63 298 25 112 31 99 -73 156 -52 28 -58 30 -63 14z"
       id="path36" />
    <path
       d="M21010 27160 c-8 -10 -56 -65 -106 -122 -50 -57 -97 -115 -104 -129 -19 -35 -15 -136 8 -190 43 -100 142 -179 224 -179 66 0 105 22 129 73 23 52 23 79 3 187 -68 364 -73 380 -118 380 -12 -1 -28 -9 -36 -20z"
       id="path38" />
    <path
       d="M21264 24564 c-74 -36 -92 -153 -39 -258 52 -103 160 -179 229 -162 43 11 86 57 97 103 23 106 -62 267 -166 314 -49 22 -80 23 -121 3z m101 -126 c44 -38 75 -96 75 -141 0 -44 -7 -50 -39 -31 -56 35 -107 135 -93 186 6 25 16 23 57 -14z"
       id="path40" />
    <path
       d="M23800 25379 c-173 -104 -322 -194 -330 -199 -13 -9 -13 -11 3 -21 49 -29 140 -115 186 -176 29 -37 75 -114 103 -170 27 -57 52 -103 53 -103 2 0 61 35 132 79 70 43 219 134 331 201 128 78 202 129 202 140 0 24 -64 153 -109 217 -51 75 -132 153 -199 192 -29 17 -54 31 -55 31 -1 -1 -144 -86 -317 -191z"
       id="path42" />
    <path
       d="M23402 23474 l3 -1607 174 -99 c135 -78 175 -97 182 -87 5 8 8 635 6 1424 l-2 1410 -23 80 c-59 204 -198 411 -320 474 l-22 12 2 -1607z"
       id="path44" />
    <path
       d="M24264 24867 c-128 -78 -275 -168 -329 -201 -89 -54 -96 -61 -90 -84 21 -84 25 -296 25 -1341 0 -921 3 -1151 13 -1143 11 9 247 153 540 330 l107 65 0 1227 c0 675 -3 1242 -6 1259 -4 17 -12 31 -18 30 -6 0 -115 -64 -242 -142z"
       id="path46" />
    <path
       d="M24245 22204 c-148 -91 -294 -179 -322 -196 l-53 -30 0 -114 c0 -63 3 -114 6 -114 9 0 616 361 637 378 14 13 17 33 17 129 0 62 -3 113 -7 113 -5 -1 -129 -75 -278 -166z"
       id="path48" />
    <path
       d="M26585 23195 c-140 -26 -250 -89 -291 -167 -17 -32 -18 -95 -3 -135 75 -199 581 -259 824 -98 90 60 120 157 75 245 -65 127 -355 201 -605 155z m330 -145 c84 -21 139 -50 156 -81 15 -29 -34 -71 -118 -98 -74 -25 -293 -43 -293 -24 0 16 20 176 26 201 4 20 10 22 78 22 40 0 108 -9 151 -20z"
       id="path50" />
    <path
       d="M27245 22313 c-27 -8 -54 -19 -59 -23 -7 -7 97 -394 110 -409 2 -2 33 4 69 14 78 21 77 -9 2 249 -29 99 -57 181 -62 182 -6 1 -32 -4 -60 -13z"
       id="path52" />
    <path
       d="M19765 21324 c-23 -8 -57 -28 -77 -44 -52 -43 -598 -677 -620 -719 -12 -23 -18 -57 -18 -102 0 -59 4 -73 33 -115 31 -47 60 -65 647 -401 338 -194 646 -369 683 -389 113 -59 228 -57 315 6 41 30 589 686 618 740 39 73 16 199 -48 256 -29 28 -1300 753 -1347 770 -47 17 -136 16 -186 -2z m779 -490 c353 -201 651 -376 664 -390 36 -40 28 -66 -45 -156 -162 -199 -501 -604 -517 -617 -9 -8 -41 -16 -69 -19 l-52 -4 -650 372 c-357 204 -659 380 -669 390 -37 36 -27 81 35 152 31 34 160 185 288 333 128 149 247 278 264 288 73 40 60 46 751 -349z"
       id="path54" />
    <path
       d="M18410 17290 c-36 -36 -39 -115 -9 -188 l14 -34 90 72 c50 40 92 74 94 76 8 8 -44 56 -81 75 -48 24 -83 24 -108 -1z"
       id="path56" />
    <path
       d="M18527 17098 l-88 -71 23 -24 c48 -52 125 -76 168 -53 19 10 40 59 40 95 0 35 -32 125 -44 124 -6 0 -51 -32 -99 -71z"
       id="path58" />
    <path
       d="M18527 19292 c-16 -17 -17 -65 -17 -583 0 -310 3 -574 6 -587 4 -15 12 -21 21 -18 13 5 243 147 243 150 0 0 -7 23 -15 50 -12 40 -15 127 -15 475 l0 427 -80 47 c-100 58 -121 64 -143 39z"
       id="path60" />
    <path
       d="M18852 18733 l3 -408 33 -62 c19 -34 44 -70 55 -81 25 -23 695 -412 709 -412 6 0 8 158 6 393 -3 377 -4 394 -25 447 -45 111 -39 107 -546 399 -126 72 -231 131 -233 131 -3 0 -4 -183 -2 -407z"
       id="path62" />
    <path
       d="M18693 18082 l-123 -77 33 -32 c17 -17 113 -78 212 -135 99 -57 261 -151 360 -208 99 -57 230 -132 290 -168 62 -36 123 -65 140 -66 25 -1 31 4 42 34 6 19 12 76 12 126 l1 90 -197 114 c-109 63 -279 160 -378 217 -112 65 -194 119 -216 143 -20 22 -41 40 -45 40 -5 0 -64 -35 -131 -78z"
       id="path64" />
    <path
       d="M21202 15693 c-20 -8 -42 -59 -42 -96 0 -39 28 -127 40 -127 7 0 138 99 173 130 15 13 -12 48 -57 75 -40 23 -84 30 -114 18z"
       id="path66" />
    <path
       d="M21323 15502 c-45 -37 -85 -70 -89 -75 -13 -12 58 -77 98 -89 90 -27 140 48 108 162 -21 75 -27 75 -117 2z"
       id="path68" />
    <path
       d="M19305 14166 c-13 -13 -29 -42 -36 -65 -11 -37 -15 -41 -45 -41 -30 0 -34 -3 -40 -37 -7 -37 -6 -38 40 -68 13 -9 10 -31 -23 -188 -21 -98 -43 -183 -49 -189 -8 -8 -21 -5 -47 11 -20 11 -38 21 -41 21 -2 0 -4 -29 -4 -65 l0 -65 53 -35 c90 -60 155 -57 182 8 7 18 30 115 50 217 21 102 39 187 41 189 2 2 19 -6 39 -18 20 -11 38 -21 39 -21 4 0 7 15 22 87 6 30 3 34 -30 49 -21 11 -36 25 -36 35 0 29 17 31 49 4 l30 -26 21 48 c11 26 18 53 16 60 -12 30 -149 112 -189 113 -10 0 -29 -11 -42 -24z"
       id="path70" />
    <path
       d="M19538 13863 c-2 -21 -15 -95 -28 -164 -21 -112 -22 -133 -11 -182 16 -73 58 -129 117 -157 39 -19 52 -21 76 -12 26 10 28 9 28 -17 0 -22 10 -32 60 -59 33 -19 60 -32 60 -29 0 4 79 391 87 422 3 16 -4 25 -29 37 -18 9 -52 29 -76 43 -31 19 -43 23 -46 13 -2 -7 -11 -58 -21 -113 -19 -111 -46 -185 -68 -185 -20 0 -47 33 -47 57 0 19 43 235 55 278 5 17 -6 27 -68 63 -41 23 -77 42 -80 42 -3 0 -7 -17 -9 -37z"
       id="path72" />
    <path
       d="M20027 13533 c-41 -43 -57 -94 -57 -177 0 -144 63 -246 192 -311 39 -19 86 -35 104 -35 l34 0 0 60 0 60 -33 0 c-50 0 -119 39 -139 79 -9 19 -15 37 -13 41 3 4 30 -6 61 -21 73 -37 145 -40 168 -7 22 31 20 123 -3 173 -58 129 -244 210 -314 138z"
       id="path74" />
    <path
       d="M20506 13513 c-3 -10 -12 -58 -21 -108 -10 -49 -35 -177 -56 -283 -22 -107 -37 -197 -34 -202 7 -11 135 -83 140 -78 1 1 22 93 45 203 87 413 85 397 69 406 -115 69 -138 79 -143 62z"
       id="path76" />
    <path
       d="M20994 13168 c-60 -64 -156 -175 -181 -211 -18 -24 -23 -45 -23 -92 0 -84 23 -145 77 -205 59 -65 107 -90 176 -90 63 0 101 24 123 76 23 55 22 62 -43 399 -34 178 -57 199 -129 123z"
       id="path78" />
    <path
       d="M28893 13187 l-52 -32 -3 -1010 -3 -1010 -28 -61 c-16 -34 -47 -79 -70 -101 -23 -22 -121 -85 -217 -140 -96 -55 -251 -144 -345 -198 -282 -163 -461 -266 -635 -367 -91 -52 -273 -157 -405 -233 -132 -76 -248 -143 -257 -149 -14 -9 -18 -25 -18 -76 0 -36 4 -71 9 -79 9 -15 4 -18 1106 619 270 156 580 335 690 398 247 141 261 152 291 216 l24 51 0 1087 c0 597 -3 1093 -6 1102 -8 22 -21 19 -81 -17z"
       id="path80" />
    <path
       d="M28585 13009 c-77 -45 -345 -199 -595 -344 -250 -144 -585 -338 -745 -430 -159 -92 -302 -179 -318 -193 -15 -14 -36 -44 -47 -67 -20 -40 -20 -62 -20 -1014 l0 -973 23 14 c20 13 158 93 757 438 176 101 745 430 914 528 100 58 132 85 159 136 l22 41 3 973 c1 534 -1 972 -5 972 -5 0 -71 -37 -148 -81z"
       id="path82" />
    <path
       d="M15795 12984 c-302 -67 -383 -294 -149 -416 86 -45 124 -56 242 -68 206 -22 412 29 506 126 54 55 68 117 40 182 -30 73 -98 124 -219 162 -93 30 -315 37 -420 14z m388 -150 c32 -10 75 -33 95 -50 31 -27 35 -35 26 -51 -16 -27 -100 -69 -168 -84 -59 -13 -229 -19 -239 -9 -2 3 2 50 9 105 7 55 13 104 14 109 0 15 201 0 263 -20z"
       id="path84" />
    <path
       d="M31985 21554 c-148 -32 -287 -122 -337 -217 -22 -41 -23 -52 -25 -349 l-2 -308 -24 -32 c-131 -174 -247 -446 -301 -706 -51 -246 -51 -238 -51 -1477 l0 -1160 28 -57 c16 -32 44 -76 63 -99 19 -22 34 -51 34 -64 0 -12 6 -41 14 -63 l15 -40 -61 -53 c-160 -139 -340 -378 -436 -577 -30 -64 -60 -119 -65 -121 -33 -13 -477 -287 -499 -308 -15 -14 -37 -48 -50 -77 -20 -44 -23 -67 -23 -166 1 -99 5 -126 28 -195 46 -132 101 -219 207 -325 129 -129 198 -165 321 -165 l86 0 233 140 c128 77 248 155 266 173 l33 32 125 0 c374 0 777 128 1163 368 71 44 479 292 908 552 429 259 794 482 811 495 39 30 88 102 110 164 10 25 39 68 65 96 88 92 125 211 116 375 -14 252 -142 525 -341 726 -94 93 -181 155 -281 198 -89 38 -224 48 -295 21 -25 -9 -63 -15 -85 -13 -22 1 -71 2 -109 1 -86 -3 -124 -21 -376 -178 -102 -63 -188 -115 -192 -115 -5 0 -8 348 -8 773 0 831 -3 901 -54 1140 -48 225 -146 471 -251 632 l-47 70 11 54 c18 87 14 536 -4 599 -31 102 -142 192 -300 242 -93 30 -315 37 -420 14z m391 -148 c129 -41 204 -109 204 -184 0 -44 -64 -113 -137 -147 -259 -123 -683 -25 -683 157 0 74 115 160 250 187 30 6 64 13 75 15 51 12 213 -4 291 -28z m-596 -551 l0 -105 55 0 55 0 0 86 c0 76 2 85 18 82 15 -3 17 -18 20 -116 l3 -112 54 0 55 0 0 101 c0 88 2 100 16 95 9 -3 20 -6 25 -6 5 0 9 -49 9 -110 l0 -110 55 0 55 0 0 110 0 110 30 0 30 0 0 -106 0 -106 42 7 c67 12 170 50 223 83 48 30 50 30 53 11 19 -119 -242 -245 -463 -223 -76 7 -179 35 -235 64 -43 22 -99 77 -111 108 -13 33 -12 242 1 242 6 0 10 -42 10 -105z m98 -399 c37 -14 87 -30 112 -37 53 -14 251 -18 332 -5 l57 8 37 -118 c101 -323 168 -697 190 -1056 l7 -116 -82 -26 c-369 -117 -848 -45 -1055 159 -74 74 -96 122 -96 219 0 335 123 768 289 1022 l34 51 54 -38 c30 -21 85 -49 121 -63z m1103 -1212 c7 -8 -7 -27 -47 -63 -55 -50 -208 -151 -229 -151 -6 0 -23 24 -37 54 l-27 54 82 50 c45 28 100 68 122 89 l40 38 43 -30 c24 -16 47 -34 53 -41z m-1389 -224 c160 -75 337 -110 553 -110 163 0 349 27 448 65 16 7 17 -24 15 -606 l-3 -612 -70 -43 -70 -43 -5 467 c-5 464 -5 467 -28 503 -12 20 -39 45 -59 54 -33 16 -48 17 -170 5 -307 -29 -571 37 -760 189 l-58 47 -3 108 -3 108 65 -46 c35 -26 102 -64 148 -86z m18 -384 c136 -54 269 -79 440 -80 80 0 173 3 208 7 l62 8 0 -206 0 -205 -110 0 -110 0 0 -50 0 -50 110 0 110 0 0 -35 0 -35 -110 0 -110 0 0 -50 0 -50 111 0 110 0 -3 -32 -3 -33 -107 -3 -108 -3 0 -49 0 -50 111 0 c109 0 110 0 107 -22 -3 -22 -8 -23 -110 -26 l-108 -3 0 -49 0 -49 98 -3 99 -3 -165 -99 c-184 -112 -175 -110 -319 -76 -144 34 -277 107 -382 209 l-51 50 0 555 0 555 71 -44 c39 -24 111 -60 159 -79z m2575 -521 c125 -88 241 -232 321 -398 65 -134 85 -212 90 -347 l4 -115 -20 90 c-71 325 -269 639 -526 833 l-29 22 50 -21 c28 -12 77 -41 110 -64z m-402 57 c7 -5 37 -22 67 -37 188 -94 392 -317 499 -546 43 -91 89 -234 93 -288 3 -39 29 -21 -482 -331 -151 -92 -414 -251 -585 -355 -170 -103 -364 -220 -430 -260 -65 -41 -123 -71 -127 -69 -4 3 -8 13 -8 24 0 30 -69 218 -110 300 -133 264 -364 503 -577 596 -41 17 -73 36 -72 40 2 5 39 31 83 58 l80 49 69 -23 c109 -37 220 -112 327 -219 111 -112 153 -171 235 -335 73 -145 101 -170 180 -164 44 4 88 27 385 208 661 401 708 431 727 458 12 19 18 45 18 87 0 52 -7 75 -52 168 -29 60 -74 141 -100 180 -64 96 -198 234 -283 292 -71 47 -207 115 -232 115 -20 0 71 52 106 61 40 9 174 3 189 -9z m-389 -168 c92 -23 233 -95 309 -159 98 -82 189 -200 258 -340 32 -65 59 -127 59 -136 0 -18 -134 -104 -148 -95 -5 3 -32 43 -60 90 -29 47 -55 86 -59 86 -5 0 -69 -36 -82 -47 -2 -1 22 -46 54 -99 47 -77 56 -98 44 -105 -8 -5 -17 -9 -21 -9 -4 0 -31 39 -60 86 -28 47 -56 87 -60 90 -6 4 -60 -22 -87 -42 -2 -2 22 -45 54 -96 l57 -93 -22 -17 c-12 -10 -26 -16 -30 -13 -4 3 -31 45 -61 94 -52 89 -53 90 -78 76 -70 -37 -70 -33 -11 -131 29 -49 55 -92 57 -96 2 -4 -9 -14 -25 -22 l-28 -15 -34 57 c-18 31 -44 74 -57 95 l-24 38 -37 -22 c-20 -12 -40 -25 -44 -28 -4 -4 17 -47 47 -96 30 -49 55 -93 55 -97 0 -9 -322 -203 -337 -203 -7 0 -33 43 -58 95 -123 252 -303 447 -518 559 -75 39 -76 41 -55 55 98 62 924 556 931 556 5 0 37 -7 71 -16z m-1944 -600 c64 -46 180 -103 260 -128 l70 -22 -43 -24 c-23 -13 -68 -41 -99 -62 -31 -21 -60 -38 -64 -38 -4 0 -22 11 -40 25 -18 14 -40 25 -48 25 -9 0 -16 5 -16 12 0 6 -11 26 -25 44 -41 53 -65 115 -65 167 0 53 -3 53 70 1z m601 -323 c36 -15 92 -45 125 -66 81 -53 240 -214 301 -305 88 -131 166 -301 192 -420 7 -30 15 -63 17 -72 4 -12 -17 -28 -83 -64 -303 -165 -753 -337 -1054 -403 l-87 -19 -27 69 c-70 179 -228 351 -378 411 -28 12 -53 23 -55 24 -7 4 74 154 126 233 121 185 285 354 494 512 124 93 164 117 213 130 49 13 145 -1 216 -30z m776 -1038 c-3 -76 -11 -157 -17 -180 l-12 -41 -60 21 c-55 20 -59 23 -53 47 3 14 9 82 12 152 6 142 1 135 87 137 l49 1 -6 -137z m-1780 15 c245 -147 388 -549 239 -670 -11 -10 -23 -18 -26 -18 -3 0 -6 37 -7 83 -1 58 -9 106 -28 165 l-26 83 -32 -20 c-152 -92 -151 -92 -164 -74 -7 9 -13 22 -13 29 0 7 40 36 89 65 l90 53 -22 39 c-12 21 -26 42 -32 47 -7 5 -44 -12 -99 -46 -69 -43 -91 -52 -102 -43 -8 6 -14 15 -14 19 0 5 35 30 78 55 42 26 79 49 80 50 4 4 -48 95 -54 95 -3 0 -46 -25 -96 -56 -78 -47 -93 -53 -105 -41 -12 12 -4 20 56 57 39 23 71 46 71 51 0 5 -11 27 -25 49 -29 46 -20 47 -133 -22 -34 -21 -67 -38 -72 -38 -25 0 -2 19 88 73 93 55 99 58 150 53 37 -3 72 -15 109 -38z m-430 -228 c28 -14 82 -57 129 -105 66 -66 90 -100 128 -176 97 -195 95 -365 -4 -417 -78 -41 -251 62 -351 210 -115 169 -155 345 -103 454 32 68 104 80 201 34z"
       id="path86" />
    <path
       d="M7799 16985 c-225 -35 -424 -151 -497 -289 l-27 -51 -5 -324 -5 -325 -96 -58 c-164 -98 -252 -208 -339 -424 -148 -362 -239 -740 -275 -1144 l-6 -66 -96 -44 c-453 -208 -939 -638 -1327 -1175 -47 -66 -91 -137 -97 -159 -24 -90 29 -215 134 -312 92 -85 145 -108 247 -109 98 0 135 18 165 81 20 43 159 229 273 364 105 126 296 317 417 418 90 75 265 202 279 202 3 0 6 -246 6 -547 0 -511 2 -551 19 -588 10 -22 29 -50 42 -62 13 -12 275 -166 582 -343 l559 -322 66 4 67 3 1440 830 c1337 771 1444 835 1505 895 72 72 130 176 150 270 8 39 10 279 8 850 l-3 795 -22 42 c-28 51 -44 63 -273 195 l-185 106 -7 114 c-11 176 -40 259 -115 329 -38 37 -463 266 -579 313 -156 63 -406 84 -618 50 -118 -19 -287 -68 -403 -118 l-83 -35 0 129 c0 171 -17 219 -109 310 -168 167 -479 243 -792 195z m286 -125 c120 -14 195 -34 284 -77 139 -66 217 -174 192 -262 -67 -226 -537 -344 -882 -222 -153 54 -246 130 -270 223 -11 39 -10 52 5 91 44 117 228 217 452 246 97 12 117 12 219 1z m1530 -496 c39 -7 97 -24 130 -36 l60 -23 -45 -2 c-256 -14 -539 -109 -834 -278 l-116 -66 -52 28 -53 28 -3 91 -3 91 58 26 c327 147 602 192 858 141z m-2135 -299 l0 -155 55 0 55 0 0 134 0 135 28 -9 c65 -19 61 -8 64 -178 l3 -157 53 -3 52 -3 0 145 0 146 33 0 c80 0 77 6 77 -166 l0 -154 55 0 55 0 0 155 0 155 34 0 c19 0 41 3 50 6 14 5 16 -12 16 -151 l0 -158 54 7 c106 12 278 85 364 153 l32 26 0 -58 c0 -73 -20 -114 -82 -170 -58 -52 -141 -94 -253 -126 -69 -21 -102 -24 -240 -24 -136 0 -172 3 -237 22 -110 32 -199 77 -256 128 -77 70 -82 86 -82 284 l0 171 35 0 35 0 0 -155z m2272 -211 l3 -66 235 -125 235 -124 106 22 106 21 97 -57 c54 -31 96 -59 94 -60 -11 -11 -870 -195 -910 -195 -58 0 -95 13 -131 48 -16 15 -101 111 -189 214 -124 145 -169 192 -204 209 -25 12 -42 25 -37 30 14 13 179 77 260 100 105 29 206 47 275 48 l57 1 3 -66z m323 1 c33 -14 65 -33 71 -43 16 -25 28 -85 16 -81 -5 2 -68 35 -141 74 -89 47 -131 75 -131 86 0 16 5 16 63 3 34 -8 89 -25 122 -39z m-1328 -23 c26 -16 77 -43 113 -61 36 -18 68 -36 72 -39 4 -4 -164 -106 -374 -226 -209 -121 -402 -237 -429 -258 -61 -49 -130 -141 -179 -238 -43 -86 -124 -299 -170 -447 -17 -57 -33 -103 -35 -103 -7 0 -929 520 -938 529 -18 18 115 416 194 577 49 99 119 179 205 234 36 23 67 40 67 38 46 -93 68 -126 117 -171 72 -67 195 -129 326 -164 89 -24 116 -27 269 -27 152 0 180 3 267 27 196 52 356 157 412 269 14 29 26 60 26 70 0 23 0 23 57 -10z m-1793 -1089 c167 -94 464 -261 659 -371 72 -40 97 -59 92 -70 -10 -28 -55 -260 -62 -321 -3 -34 -9 -63 -12 -65 -3 -2 -50 22 -104 54 l-99 58 -2 98 c-1 86 -5 106 -28 149 -46 88 -123 144 -225 165 -57 12 -208 -4 -323 -35 -53 -14 -55 -14 -100 12 -25 14 -46 27 -48 28 -4 3 27 213 44 300 16 81 21 95 31 95 3 0 82 -44 177 -97z m2340 -15 c11 -20 19 -38 16 -41 -3 -2 -113 -66 -245 -142 -267 -154 -488 -281 -675 -390 -69 -40 -139 -79 -155 -88 l-31 -15 -23 40 c-12 22 -19 43 -14 47 4 4 105 63 223 131 118 68 283 163 365 210 429 249 501 289 509 287 5 -2 18 -19 30 -39z m1110 17 c14 -13 31 -36 36 -50 6 -16 10 -183 10 -415 0 -375 -1 -391 -22 -447 -34 -92 -87 -137 -303 -261 -248 -142 -1074 -619 -1190 -687 -329 -193 -635 -364 -661 -369 -53 -12 -101 15 -125 69 -19 43 -20 63 -17 437 l3 393 26 56 c35 75 86 123 195 185 107 60 1070 617 1554 897 190 110 354 203 365 208 43 17 101 10 129 -16z m-3204 -464 c19 -10 45 -33 57 -51 22 -32 40 -96 30 -106 -2 -3 -49 -10 -103 -15 -224 -22 -438 -86 -659 -194 -375 -185 -710 -477 -984 -859 -39 -55 -72 -104 -74 -110 -2 -6 -20 3 -39 20 -20 17 -61 43 -92 58 -31 15 -56 29 -56 33 0 12 191 241 303 363 259 282 560 521 847 672 295 155 664 246 770 189z m288 -454 l124 -72 -1 -684 c-1 -377 -3 -686 -4 -687 -2 -2 -63 33 -562 321 -132 76 -265 152 -295 170 l-55 31 0 374 0 374 89 38 c108 47 200 73 326 94 96 16 190 55 226 95 9 10 20 19 23 19 3 0 62 -33 129 -73z m-2210 -929 c111 -52 216 -210 170 -256 -47 -47 -209 51 -264 160 -23 46 -31 97 -17 111 13 14 64 6 111 -15z m1732 -338 c146 -84 340 -195 433 -248 l167 -96 0 -134 0 -134 -22 14 c-20 13 -139 82 -663 383 -164 94 -220 128 -227 139 -4 6 -8 66 -8 134 l0 123 28 -15 c15 -8 146 -82 292 -166z"
       id="path88" />
    <path
       d="M10260 14640 l-45 -29 -5 -298 -5 -299 -32 -65 c-18 -35 -42 -74 -55 -86 -24 -22 -139 -90 -698 -413 -184 -106 -402 -232 -485 -280 -299 -173 -601 -347 -652 -376 l-53 -29 0 -62 c0 -65 6 -93 21 -93 5 0 94 49 197 109 103 59 333 192 512 295 357 206 533 308 745 431 77 45 234 135 349 201 114 65 220 130 234 144 14 14 34 45 46 70 20 43 21 64 24 400 2 228 -1 365 -7 383 -13 34 -34 34 -91 -3z"
       id="path90" />
    <path
       d="M10030 14507 c-41 -23 -183 -105 -315 -182 -132 -76 -280 -162 -330 -190 -79 -45 -404 -233 -795 -459 -69 -40 -163 -94 -209 -121 -88 -51 -135 -105 -146 -169 -3 -17 -5 -138 -3 -269 l3 -237 175 101 c96 56 499 288 895 516 396 229 728 423 738 431 9 8 28 38 42 67 25 51 25 51 23 303 l-3 252 -75 -43z"
       id="path92" />
    <path
       d="M31985 13455 c-33 -7 -82 -22 -110 -32 -58 -22 -520 -290 -645 -373 -198 -132 -375 -295 -412 -376 -54 -121 -14 -262 105 -370 47 -43 352 -226 1302 -785 682 -401 1263 -740 1290 -753 229 -110 565 -128 775 -42 30 13 210 114 400 225 361 210 412 249 455 337 40 81 12 285 -59 439 -65 141 -189 295 -309 383 -85 63 -2115 1253 -2200 1290 -116 50 -236 72 -397 71 -74 0 -162 -7 -195 -14z m422 -144 c45 -11 102 -30 128 -41 25 -11 519 -298 1097 -637 733 -431 1065 -632 1098 -663 62 -60 88 -125 71 -180 -6 -22 -27 -54 -45 -72 -42 -40 -503 -310 -566 -331 -92 -31 -169 -40 -288 -34 -119 5 -194 21 -292 59 -30 12 -527 299 -1105 638 -1124 660 -1149 676 -1175 767 -18 60 -6 107 39 151 46 45 506 313 579 336 85 29 141 35 262 32 75 -2 143 -11 197 -25z m-1010 -766 c35 -22 63 -42 63 -45 0 -3 -66 -49 -147 -102 l-146 -96 -36 22 c-40 25 -52 65 -29 93 18 23 220 174 227 171 3 -2 34 -21 68 -43z m345 -206 c65 -39 1262 -744 1373 -809 44 -26 128 -75 188 -110 l107 -63 0 -106 c0 -93 -14 -239 -24 -248 -2 -2 -77 40 -167 93 -90 53 -191 113 -224 132 -33 19 -157 92 -275 162 -118 70 -466 274 -773 455 -307 180 -556 329 -553 332 11 11 282 192 288 193 4 0 31 -14 60 -31z m3076 -882 c34 -100 59 -243 49 -271 -5 -11 -19 -16 -52 -16 l-45 0 0 43 c0 50 -31 183 -59 255 l-21 52 38 19 c20 11 42 19 47 17 6 -1 25 -46 43 -99z m-594 -184 c19 -64 29 -167 30 -290 1 -78 -1 -144 -4 -146 -3 -3 -25 -3 -50 0 l-45 5 -1 147 c0 90 -6 171 -15 212 l-15 66 35 10 c53 15 59 15 65 -4z m-534 -29 c52 -13 112 -26 133 -29 l37 -6 -1 -147 c0 -139 -6 -177 -35 -225 -10 -17 -14 -17 -75 -3 -75 17 -196 61 -222 81 -17 13 -18 16 -2 67 10 31 19 105 22 176 6 120 6 123 27 117 11 -4 64 -18 116 -31z"
       id="path94" />
  </g>
</svg>
